<?xml version="1.0" encoding="UTF-8"?>
<svg width="10px" height="10px" viewBox="0 0 10 10" version="1.1" xmlns="http://www.w3.org/2000/svg" xmlns:xlink="http://www.w3.org/1999/xlink">
    <title>形状</title>
    <g id="页面-1" stroke="none" stroke-width="1" fill="none" fill-rule="evenodd">
        <g id="User-center-My-sharks" transform="translate(-334.000000, -349.000000)" fill="#FFFFFF" fill-rule="nonzero">
            <g id="rank-list" transform="translate(267.000000, 203.000000)">
                <g id="Time备份" transform="translate(48.000000, 140.000000)">
                    <path d="M28.5822055,6 C28.8118897,6 28.9983131,6.18499911 29,6.41499196 C29.0013235,6.64275188 28.8180221,6.82864416 28.5905678,6.82998392 L27.7501018,6.82998392 L27.7501018,7.97001161 C27.7501018,9.29581994 26.9178867,10.430042 25.7111524,11 C26.9178867,11.5641524 27.7501018,12.7041801 27.7501018,14.0299884 L27.7501018,15.1700161 L28.582317,15.1700161 C28.8112208,15.1700161 28.9967521,15.3557967 28.9967521,15.585008 C28.9967521,15.8142194 28.8112208,16 28.582317,16 L19.4260549,16 L19.3511288,15.9933012 C19.125347,15.9586906 18.9702544,15.7473428 19.0048185,15.5212576 C19.0364837,15.3138174 19.2182241,15.1628707 19.4277274,15.1699044 L20.2666324,15.1699044 L20.2666324,14.0301 C20.2666324,12.7042917 21.098067,11.5700697 22.3055818,11.0001116 C21.098067,10.4359593 20.2666324,9.29593158 20.2666324,7.97012326 L20.2666324,6.82998392 L19.4277274,6.82998392 C19.1988236,6.82998392 19.0132923,6.64420329 19.0132923,6.41499196 C19.0132923,6.18578064 19.1988236,6 19.4277274,6 L28.5822055,6 Z M26.9176637,6.82998392 L21.0962831,6.82998392 L21.0962831,7.96420597 C21.0962831,8.95172383 21.7179915,9.86008396 22.674972,10.3167203 C22.9646418,10.4692301 23.1302151,10.7350616 23.1302151,11.0001116 C23.1385774,11.3015586 22.9560565,11.5754287 22.674972,11.683503 C21.7237894,12.1401393 21.0962831,13.0484995 21.0970636,14.0360173 L21.0970636,15.1810691 L21.5605574,15.1810691 L21.5605574,14.6977492 C21.5605574,13.8060245 21.8884707,12.8285548 22.9054367,12.2343694 L23.0719021,12.1434887 C23.4514386,11.9793676 23.7626273,11.6318105 24.0047992,11.1018221 C24.1962399,11.5926224 24.5208083,11.9401795 24.9801768,12.1434887 C26.2284995,12.7893667 26.425738,13.7601375 26.425738,14.6976375 L26.425738,15.1809575 L26.9175522,15.1809575 L26.9175522,14.0417113 C26.9175522,13.0541935 26.2967358,12.1458333 25.3396437,11.6883039 C25.0500855,11.535794 24.8844007,11.270744 24.8844007,11.0049125 C24.8844007,10.700786 25.049974,10.435736 25.3396437,10.3224143 C26.2908264,9.86655949 26.9175522,8.95819936 26.9175522,7.96989996 L26.9175522,6.82998392 L26.9176637,6.82998392 Z M26.3393277,8.5 C26.3393277,9.04171133 25.6735779,9.64840121 25.0527614,9.90585924 C24.6815872,10.0600438 24.3320435,10.3499911 24.0050222,10.7759244 C23.6953944,10.3501027 23.3558855,10.0600438 22.9888367,9.90597088 C22.3255398,9.62763487 21.758019,9.07018131 21.758019,8.50011165 L26.3393277,8.50011165 L26.3393277,8.5 Z" id="形状"></path>
                </g>
            </g>
        </g>
    </g>
</svg>